<?xml version="1.0" encoding="utf-8"?>
<!-- Generator: Adobe Illustrator 19.0.0, SVG Export Plug-In . SVG Version: 6.00 Build 0)  -->
<svg viewBox="0 -10 182 35" fill="none" xmlns="http://www.w3.org/2000/svg">
<path d="M71.5088 0.0775116C73.6344 0.472837 75.3172 1.76576 76.1948 3.19715C77.0977 4.66954 76.7836 5.90893 76.249 7.73713C75.7144 9.56533 73.851 11.7051 72.4601 13.5983C68.6464 17.6522 62.7919 17.4271 57.9149 17.4271H51.6339C51.6339 17.4271 50.6834 17.5261 50.1171 17.8949C48.3241 19.3608 47.6812 21.111 46.4566 22.9921H42.2431H38.1885V22.8125H38.1885C40.9355 18.7978 44.8247 11.0452 50.1131 10.9088L56.8529 10.8945L63.5927 10.8801C67.501 9.92269 68.1794 6.46602 67.9425 6.47241C64.2253 6.45388 48.8645 6.44564 44.8734 6.46086L42.9548 3.40813C41.8996 1.72912 40.9732 0.148194 40.9732 0.0717773" fill="#FFF"/>
<path d="M112.594 13.9929L114.464 10.8698C117.194 10.8698 119.042 10.8698 121.772 10.8698L120.323 13.2834C119.526 14.6109 118.874 15.7894 118.874 15.9023V16.1075H127.721H136.567C137.535 16.1075 138.482 15.3803 138.976 14.6142L141.384 10.8819C142.708 8.82906 143.791 7.02907 143.791 6.88188V6.61428H130.087H116.418C119.337 -0.502696 124.767 0.0526402 124.767 0.0526402C124.767 0.0526402 146.667 0.0447502 147.172 0.0405273C151.222 0.618928 153.016 3.36278 151.422 6.39272C151.422 6.39272 147.145 14.1022 144.635 17.5111C141.313 22.8029 139.337 22.8182 133.293 22.8182C132.16 22.9918 124.19 22.8952 117.628 22.933C106.924 23.3472 112.257 14.3928 112.594 13.9929Z" fill="#FFF"/>
<path d="M108.077 0.0950797C110.203 0.490405 111.886 1.78334 112.763 3.21473C113.666 4.68712 113.352 5.9265 112.818 7.7547C112.283 9.5829 110.01 12.4514 109.029 13.6159C108.047 14.7803 105.539 16.2833 103.402 16.6977C100.797 17.2031 100.816 17.5879 100.816 17.5879L104.037 22.9563L95.8429 22.9666C95.8429 22.9666 94.1498 19.4345 92.9732 18.5442C91.7967 17.6538 89.6391 17.4447 89.6391 17.4447H73.2275L77.2102 10.912L100.161 10.8977C104.07 9.94026 104.748 6.4836 104.511 6.48999C100.794 6.47146 85.433 6.46321 81.4419 6.47843L79.5233 3.4257C78.4681 1.74669 77.5418 0.165772 77.5418 0.0893555" fill="#FFF"/>
<path d="M34.8498 0.00573424C36.9754 0.40106 38.6582 1.69399 39.5358 3.12537C40.4387 4.59776 40.1246 5.83715 39.5899 7.66535C39.0554 9.49355 36.7827 12.3621 35.8011 13.5265C34.8195 14.6909 32.3115 16.194 30.1749 16.6084C27.5697 17.1137 27.5886 17.4986 27.5886 17.4986L30.8095 22.9897L22.6154 23C22.6154 23 20.9222 19.3452 19.7457 18.4548C18.5691 17.5645 16.4116 17.3554 16.4116 17.3554H0L3.98267 10.8227L26.9337 10.8083C30.842 9.85091 31.5204 6.39424 31.2835 6.40063C27.5663 6.3821 12.2055 6.37386 8.21441 6.38908L6.2958 3.33635C5.24052 1.65735 4.31421 0.0764169 4.31421 0" fill="#FFF"/>
</svg>
